<svg xmlns="http://www.w3.org/2000/svg" xmlns:xlink="http://www.w3.org/1999/xlink" width="16" height="16" viewBox="0 0 16 16">
    <defs>
        <path id="a" d="M2 7h12a1 1 0 0 1 0 2H2a1 1 0 1 1 0-2z"/>
        <path id="b" d="M2 3h12a1 1 0 0 1 0 2H2a1 1 0 1 1 0-2z"/>
        <path id="c" d="M2 11h12a1 1 0 0 1 0 2H2a1 1 0 0 1 0-2z"/>
    </defs>
    <g fill="none" fill-rule="evenodd">
        <path fill="#9299A2" fill-opacity=".01" d="M0 0h16v16H0z"/>
        <use fill="#333" xlink:href="#a"/>
        <use fill="#333" xlink:href="#b"/>
        <use fill="#333" xlink:href="#c"/>
    </g>
</svg>
