<svg xmlns="http://www.w3.org/2000/svg" width="74" height="72" viewBox="0 0 74 72">
    <g fill="none" fill-rule="evenodd">
        <path d="M-16-8H88V96H-16z"/>
        <path fill="none" stroke="#1B9F29" stroke-linejoin="round" stroke-width="5" d="M13.47 3h47.051c5.519 0 9.994 4.471 10 9.99V59c-.005 5.52-4.48 9.991-10 9.991H13.47c-5.52 0-9.995-4.472-10-9.991V12.988C3.477 7.47 7.952 3 13.47 3z"/>
        <path fill="#1B9F29" d="M4.5 17.518h65a2.5 2.5 0 1 1 0 5h-65a2.5 2.5 0 1 1 0-5zm11 12.988h7a2.5 2.5 0 1 1 0 5h-7a2.5 2.5 0 0 1 0-5.001v.001zm18 0h7a2.5 2.5 0 1 1 0 5h-7a2.5 2.5 0 0 1 0-5.001v.001zm18 0h7a2.5 2.5 0 1 1 0 5h-7a2.5 2.5 0 0 1 0-5.001v.001zm-36 10.99h7a2.5 2.5 0 1 1 0 5h-7a2.5 2.5 0 0 1 0-5.001v.001zm18 0h7a2.5 2.5 0 1 1 0 5h-7a2.5 2.5 0 0 1 0-5.001v.001zm18 0h7a2.5 2.5 0 1 1 0 5h-7a2.5 2.5 0 0 1 0-5.001v.001zm-36 10.99h7a2.5 2.5 0 1 1 0 5h-7a2.5 2.5 0 0 1 0-5.001v.001zm18 0h7a2.5 2.5 0 1 1 0 5h-7a2.5 2.5 0 0 1 0-5.001v.001zm18 0h7a2.5 2.5 0 1 1 0 5h-7a2.5 2.5 0 0 1 0-5.001v.001z"/>
    </g>
</svg>
