<svg xmlns="http://www.w3.org/2000/svg" width="76" height="74" viewBox="0 0 76 74">
    <g fill="none" fill-rule="evenodd">
        <path d="M-14-10H90V94H-14z"/>
        <path fill="none" stroke="#1B9F29" stroke-linejoin="round" stroke-width="5" d="M4 23h68L38 3z"/>
        <path fill="#1B9F29" d="M2.5 69h71a2.5 2.5 0 1 1 0 5h-71a2.5 2.5 0 1 1 0-5zm11-44a2.5 2.5 0 0 1 2.5 2.5v24a2.5 2.5 0 1 1-5 0v-24a2.5 2.5 0 0 1 2.5-2.5zm12 0a2.5 2.5 0 0 1 2.5 2.5v24a2.5 2.5 0 1 1-5 0v-24a2.5 2.5 0 0 1 2.5-2.5zm12 0a2.5 2.5 0 0 1 2.5 2.5v24a2.5 2.5 0 1 1-5 0v-24a2.5 2.5 0 0 1 2.5-2.5zm12 0a2.5 2.5 0 0 1 2.5 2.5v24a2.5 2.5 0 1 1-5 0v-24a2.5 2.5 0 0 1 2.5-2.5zm12 0a2.5 2.5 0 0 1 2.5 2.5v24a2.5 2.5 0 1 1-5 0v-24a2.5 2.5 0 0 1 2.5-2.5zm-50 34h52a2.5 2.5 0 1 1 0 5h-52a2.5 2.5 0 1 1 0-5z"/>
    </g>
</svg>
