<svg xmlns="http://www.w3.org/2000/svg" width="80" height="73" viewBox="0 0 80 73">
    <g fill="none" fill-rule="evenodd">
        <path d="M-12-6H92V98H-12z"/>
        <g stroke="#1B9F29" stroke-width="5">
            <path fill="#1B9F29" fill-opacity="0" stroke-linejoin="round" d="M60.907 3c8.791 0 15.917 3.382 15.917 7.554 0 4.172-7.124 7.554-15.917 7.554S44.99 14.726 44.99 10.554C44.99 6.382 52.116 3 60.907 3z"/>
            <path stroke-linecap="round" d="M76.516 25.133c-1.454 3.461-7.89 6.069-15.609 6.069-7.759 0-14.221-2.635-15.631-6.121M76.516 38.227c-1.454 3.461-7.89 6.068-15.609 6.068-7.759 0-14.221-2.634-15.631-6.121M76.516 51.32c-1.454 3.461-7.89 6.069-15.609 6.069-7.759 0-14.221-2.635-15.631-6.122M76.516 64.413c-1.454 3.461-7.89 6.069-15.609 6.069-7.759 0-14.221-2.635-15.631-6.122"/>
            <path fill="#1B9F29" fill-opacity="0" stroke-linejoin="round" d="M19.124 29.187c8.791 0 15.917 3.382 15.917 7.554 0 4.172-7.126 7.554-15.917 7.554S3.207 40.913 3.207 36.741c0-4.172 7.127-7.554 15.917-7.554z"/>
            <path stroke-linecap="round" d="M34.734 51.32c-1.454 3.461-7.89 6.069-15.609 6.069-7.759 0-14.221-2.635-15.631-6.122M34.734 64.413c-1.454 3.461-7.89 6.069-15.609 6.069-7.759 0-14.221-2.635-15.631-6.122"/>
        </g>
    </g>
</svg>
