<svg xmlns="http://www.w3.org/2000/svg" width="78" height="71" viewBox="0 0 78 71">
    <g fill="none" fill-rule="evenodd">
        <path d="M-13-6H91V98H-13z"/>
        <path fill="#1B9F29" fill-rule="nonzero" d="M75.5 66H4.2c-1.4 0-2.5 1.1-2.5 2.5S2.9 71 4.2 71h71.3c1.4 0 2.5-1.1 2.5-2.5S76.9 66 75.5 66zm0-66H55.4c-1.4 0-2.5 1.1-2.5 2.5S54 5 55.4 5h14l-25 24.9-13.3-13.2-1.1-1c-1-1-2.6-1-3.5 0L1.7 40.4c-1 1-1 2.6 0 3.5 1 1 2.6 1 3.5 0l23-22.9 14.3 14.2c1 1 2.6 1 3.6 0 0 0 0-.1.1-.1l.2-.2L73 8.5v14c0 1.4 1.1 2.5 2.5 2.5s2.5-1.1 2.5-2.5v-20C78 1.1 76.9 0 75.5 0z"/>
    </g>
</svg>
