<svg xmlns="http://www.w3.org/2000/svg" width="18" height="22" viewBox="0 0 18 22">
    <defs>
        <linearGradient id="a" x1="50%" x2="50%" y1="0%" y2="100%">
            <stop offset="0%" stop-color="#02D08F"/>
            <stop offset="100%" stop-color="#03B09A"/>
        </linearGradient>
    </defs>
    <g fill="none" fill-rule="evenodd">
        <path fill="#D8D8D8" fill-opacity="0" d="M-3-1h24v24H-3z"/>
        <path fill="url(#a)" d="M17.457 13.895a6.619 6.619 0 0 0 1.31-3.963c0-3.697-3.028-6.699-6.767-6.699-3.74 0-6.767 3.002-6.767 6.7 0 1.447.463 2.822 1.31 3.962.06.08.106.162.14.247l4.64 6.015a.854.854 0 0 0 1.352 0l4.625-5.972c.036-.1.088-.197.157-.29zM3 9.932C3 4.997 7.032 1 12 1s9 3.997 9 8.932a8.848 8.848 0 0 1-1.508 4.951c-.038.125-.1.247-.188.362l-4.863 6.28a3.087 3.087 0 0 1-4.886-.004l-4.843-6.278a1.134 1.134 0 0 1-.17-.31 8.848 8.848 0 0 1-1.542-5zm9 4.14a4.073 4.073 0 1 1 0-8.145 4.073 4.073 0 0 1 0 8.146zm0-2.232a1.84 1.84 0 1 0 0-3.68 1.84 1.84 0 0 0 0 3.68z" transform="translate(-3 -1)"/>
    </g>
</svg>
